<?xml version="1.0" encoding="UTF-8" standalone="no"?>

<svg xmlns="http://www.w3.org/2000/svg" width="273" height="166" viewBox="0 0 273 165.6">
  <path
     d="m 107.17773,35.519531 0.27543,7.708773 4.07614,7.090055 4.35547,-17.107422 c 8.95141,44.251064 26.40234,132.380853 26.40234,132.380853 L 164.02344,63.736328 173.53906,106.77929 273,106.90234 273,99.882812 178.33203,99.617193 164.37109,33.609375 142.5625,133.70312 116.57422,0 Z" />
  <path
     d="m 107.17773,35.519531 c 0,0 -7.47575,-3.887639 -19.68554,-2.083985 -9.369569,2.105202 -13.9962,9.837832 -13.195315,21.03125 0.630633,8.813917 4.305233,12.818732 13.177735,17.316407 13.48463,6.835686 16.48457,13.760459 12.78125,21.34375 -1.03346,2.11623 -2.76841,3.14851 -4.09766,3.871089 -2.66843,1.45056 -16.171901,0.78907 -48.9082,1.03321 L 0.001953,98.382812 0,106.88281 l 48.039062,0 c 47.625338,0 47.336199,0.005 52.343748,-2.07031 3.87655,-1.6069 6.10332,-4.00209 8.47071,-8.642578 2.72592,-5.343247 2.8034,-13.242983 0.18554,-19.009766 C 107.05182,72.782554 102.16186,69.01916 91.38867,63.574218 85.83999,60.769826 83,56.521771 83,51.029296 83.57216,38.374071 100.61604,40.817005 111.52734,50.324218 l 0.002,-0.0059 z" />
  <path
     d="M 214.91145,88.8258 C 197.08856,71.344797 190.07831,53.722141 195.24312,39.382812 c 2.47089,-6.860055 9.46466,-11.633243 17.95882,-11.975257 4.81213,-0.193759 7.85524,-0.302782 9.28408,1.194196 1.42884,1.496977 0.5256,5.230907 -0.33535,5.268774 -8.02956,0.353161 -21.94095,-2.732569 -21.18808,18.1414 0.77217,16.067805 10.75981,23.714168 21.91885,36.626945 L 222.5,96.268782 Z" />
  <path
     d="m 223.03846,87.021739 c 2.06695,-2.754533 8.49256,-7.951663 6.41472,-7.951663 -2.5172,0 -1.62788,-1.872261 1.54682,-3.187264 3.40948,-1.412253 4.16025,-3.464906 1.25,-3.501656 -1.49832,-0.01892 -0.8443,-1.1097 2.6157,-2.615121 3.61845,-1.574365 5.64283,-3.51884 3.66391,-3.972549 -2.45801,-0.56355 -1.07658,-2.910674 1.02941,-2.910674 0.79254,0 1.44098,-0.45 1.44098,-1 0,-0.549999 -0.9,-1 -2,-1 -2.62087,0 -2.53582,-1.800746 0.2238,-4.738219 1.84788,-1.966986 1.98138,-2.516937 0.78976,-3.2534 -1.21121,-0.74857 -1.14421,-1.20653 0.43119,-2.94733 1.82727,-2.019115 1.07258,-1.561051 -0.23075,-2.061051 -2.40035,-0.920851 -3.2757,-1.38141 -2.32687,-3.287132 1.23946,-2.489457 1.37922,-2.947014 -1.63713,-2.252288 -1.84829,0.425697 -2.97299,-0.519603 -2.51334,-1.46058 1.31051,-2.682848 -0.86394,-1.474964 -5,-1.380885 -2.88016,0.06551 2.19692,-2.84615 -6.61166,0.5 -0.73358,0.27867 -1.56037,-0.118971 -1.78693,-0.729906 -0.51153,-1.37937 3.18501,-3.859555 8.85357,-5.940289 7.49538,-2.751292 7.17137,-2.672343 7.80836,-1.06555 0.46816,1.180911 0.99015,2.4125 3.5,1.61663 1.86144,-0.590257 3.5,0.503844 3.5,1.139758 0,0.626866 -0.31426,2.305918 1.69445,2.378766 1.96551,0.07128 1.58055,1.412834 -0.11261,3.996912 -1.23371,1.566396 -0.8257,2.700824 0.74427,2.117563 3.86798,-0.970802 4.46848,1.306201 1.0852,4.114959 -2.55267,2.119192 -2.63413,2.336882 -0.66131,1.767101 3.3252,-0.96037 2.87304,1.648188 -0.75,4.32682 -1.65,1.219898 -3,2.654524 -3,3.188058 0,0.533536 1.35,0.970063 3,0.970063 4.00822,0 3.90316,1.897061 -0.4755,3.689707 -2.11008,0.863878 -4.66909,2.330313 -2.0861,3.146 1.77197,0.559574 -0.37845,3.090951 -2.42126,4.021704 -1.47124,0.670343 -4.88742,2.408391 -2.07122,3.243245 1.87903,0.557032 -1.71886,2.512062 -4.29001,3.811026 -3.36085,1.697924 -4.57656,1.828271 -2.15692,2.778723 1.42134,0.558312 -0.16795,0.761511 -2.57725,3.205953 -3.983,4.041102 -8.26867,7.088811 -6.88328,5.242569 z" />
</svg>
